<svg width="57" height="65" viewBox="0 0 57 65" fill="none" xmlns="http://www.w3.org/2000/svg">
<g clip-path="url(#clip0_37_71)">
<path d="M45.2127 23.0107L41.3802 23.6922L40.7337 23.8072C42.6723 25.099 44.379 26.7157 45.7775 28.575C46.3333 28.4611 46.9093 28.4013 47.4987 28.4013C48.0881 28.4013 48.626 28.4566 49.1717 28.566C49.4351 28.6179 49.6939 28.6822 49.9461 28.7589C48.6742 26.6052 47.0729 24.6636 45.2127 23.0107ZM52.5167 44.0832C51.562 44.7759 50.4941 45.2554 49.3645 45.5059C49.3869 45.5014 49.4104 45.4957 49.4328 45.4912C48.7437 48.6276 47.3329 51.553 45.2766 54.0734C42.6297 57.3192 39.1267 59.6467 35.1453 60.8065C33.3019 61.3435 31.3834 61.6154 29.4448 61.6154C28.2413 61.6154 27.0366 61.5094 25.8645 61.3018C21.1871 60.4714 16.9087 57.9928 13.8192 54.3216C10.6939 50.6087 8.97263 45.8793 8.97263 41.0044C8.97263 40.2507 9.01297 39.496 9.09477 38.748H5.71618C5.64558 39.4971 5.61084 40.2519 5.61084 41.0044C5.61084 46.6792 7.61559 52.1859 11.2542 56.5103C14.8502 60.7828 19.8323 63.6676 25.2807 64.6345C26.6455 64.877 28.0463 65 29.4448 65C31.6994 65 33.9317 64.683 36.0798 64.058C40.7169 62.7075 44.7958 59.9976 47.8752 56.2215C50.837 52.5887 52.6501 48.2339 53.142 43.5846C52.9426 43.7594 52.7341 43.9264 52.5167 44.0832ZM12.4061 28.8356C12.3882 28.839 12.3703 28.8424 12.3512 28.8458L9.17657 29.4088C8.96254 29.4471 8.74851 29.4719 8.53559 29.4843C7.5293 31.3346 6.76617 33.3146 6.27423 35.3634H9.75032C10.4227 32.9829 11.5253 30.7265 12.9967 28.7307L12.4061 28.8356Z" fill="#1D1D1B"/>
<path d="M37.6452 51.0791C35.3772 51.0791 33.2088 50.1472 31.6669 48.5023C31.0292 47.8231 31.0606 46.7513 31.7352 46.1105C32.4109 45.4686 33.4744 45.5002 34.112 46.1793C35.0499 47.1789 36.3857 47.7317 37.7808 47.6934C39.0393 47.6595 40.1487 47.1462 40.9028 46.2482C41.5023 45.5351 42.5635 45.446 43.2718 46.0496C43.98 46.6532 44.0685 47.7216 43.469 48.4346C42.1075 50.0536 40.068 51.0171 37.8716 51.0769C37.7965 51.0791 37.7203 51.0802 37.6452 51.0802V51.0791Z" fill="#1D1D1B"/>
<path d="M49.9461 28.7589C49.6939 28.6822 49.4351 28.6179 49.1717 28.566C48.626 28.4565 48.0635 28.4012 47.4987 28.4012C46.9339 28.4012 46.3333 28.461 45.7774 28.575C45.643 28.6032 45.5107 28.6337 45.3785 28.6686C45.3348 28.6799 45.2911 28.6912 45.2485 28.7025C45.2362 28.7047 45.2239 28.7081 45.2115 28.7126C45.16 28.7273 45.1096 28.742 45.0591 28.7566C45.0065 28.7724 44.9538 28.7882 44.9011 28.8051C44.8922 28.8074 44.8843 28.8108 44.8754 28.813C44.8317 28.8277 44.788 28.8412 44.7443 28.857C44.7084 28.8694 44.6714 28.8819 44.6356 28.8954C44.6255 28.8988 44.6154 28.9022 44.6053 28.9067C44.5616 28.9225 44.519 28.9383 44.4764 28.9541C44.4193 28.9755 44.361 28.9981 44.3039 29.0218C44.2434 29.0454 44.184 29.0703 44.1246 29.0962C44.0708 29.1188 44.017 29.1425 43.9643 29.1673C43.9094 29.1921 43.8545 29.2181 43.7996 29.244C43.7469 29.27 43.6943 29.2959 43.6416 29.323C43.6158 29.3365 43.59 29.3489 43.5643 29.3625C43.5351 29.3771 43.506 29.3929 43.4769 29.4087C43.4298 29.4347 43.3816 29.4595 43.3345 29.4866C43.3312 29.4866 43.3267 29.49 43.3233 29.4933C43.274 29.5204 43.2258 29.5486 43.1777 29.5768C43.1284 29.605 43.0791 29.6344 43.0309 29.6648C42.9816 29.6942 42.9334 29.7246 42.8852 29.7562C42.837 29.7867 42.7899 29.8183 42.7418 29.851C42.6947 29.8826 42.6476 29.9153 42.6006 29.948C42.5546 29.9796 42.5087 30.0123 42.4627 30.0462C42.4112 30.0834 42.3608 30.1217 42.3103 30.1601C42.0795 30.3361 41.8565 30.5245 41.6447 30.7242C41.5864 30.7784 41.5293 30.8336 41.4721 30.89C41.4396 30.9228 41.4071 30.9555 41.3746 30.9882C41.35 31.013 41.3253 31.0378 41.3018 31.0638C41.2771 31.0897 41.2536 31.1146 41.2301 31.1405C41.1886 31.1845 41.1483 31.2296 41.1079 31.2748C41.0676 31.3199 41.0272 31.365 40.988 31.4113C40.8681 31.5512 40.7527 31.6945 40.6429 31.8411C40.6059 31.8896 40.57 31.9393 40.5342 31.9889C40.5006 32.0352 40.4669 32.0826 40.4344 32.1311C40.3818 32.2055 40.3314 32.2822 40.282 32.359C40.2652 32.3838 40.2484 32.4097 40.2327 32.4357C40.1969 32.4921 40.1621 32.5496 40.1274 32.6072C40.1106 32.6354 40.0938 32.6636 40.0781 32.6918C40.0445 32.7482 40.012 32.8057 39.9806 32.8633C39.9526 32.914 39.9246 32.9659 39.8977 33.0178C39.8932 33.0246 39.8887 33.0325 39.8854 33.0404C39.8517 33.1047 39.8192 33.169 39.7879 33.2333C39.7654 33.2796 39.7419 33.3258 39.7206 33.3732C39.6949 33.4274 39.6702 33.4815 39.6467 33.5368C39.6433 33.5413 39.6411 33.547 39.6399 33.5526C39.6254 33.5819 39.6119 33.6124 39.5996 33.644C39.5962 33.6496 39.5929 33.6564 39.5918 33.6632C39.5738 33.7049 39.5559 33.7478 39.5391 33.7906C39.52 33.8358 39.5021 33.8809 39.4842 33.9272C39.4696 33.9644 39.455 34.0016 39.4416 34.0388C39.4293 34.0716 39.4181 34.1043 39.4057 34.137C39.3889 34.1833 39.3732 34.2295 39.3576 34.2758C39.3497 34.2983 39.343 34.3198 39.3351 34.3423C38.8566 34.2013 38.3557 34.1246 37.8403 34.1167C37.2564 34.1088 36.6782 34.1934 36.1269 34.3626C34.9996 30.9047 31.7622 28.4012 27.9555 28.4012C23.7902 28.4012 20.3086 31.3989 19.5253 35.3634H4.45101C4.00613 35.3634 3.57806 35.5416 3.26317 35.8586L0 39.1439L2.3779 41.5369L5.14802 38.7479H19.5253C20.3086 42.7124 23.7902 45.7101 27.9555 45.7101C32.4222 45.7101 36.1056 42.2623 36.5146 37.8702C36.8945 37.6231 37.3338 37.4945 37.7921 37.5013C38.2112 37.5081 38.6045 37.6288 38.9396 37.8499C38.9463 37.9198 38.953 37.9875 38.9609 38.0552C38.9687 38.1241 38.9777 38.1917 38.9866 38.2594C38.999 38.3553 39.0135 38.4501 39.0303 38.5449C39.0393 38.5934 39.0483 38.643 39.0572 38.6915C39.0684 38.7491 39.0808 38.8066 39.092 38.863C39.1065 38.9285 39.1211 38.995 39.1368 39.0605C39.1435 39.0932 39.1514 39.1259 39.1603 39.1586C39.1682 39.1913 39.1771 39.224 39.185 39.2568C39.222 39.4012 39.2634 39.5445 39.3094 39.6866C39.3318 39.7566 39.3542 39.8254 39.3788 39.8953C39.3844 39.9145 39.3912 39.9326 39.3979 39.9517C39.4169 40.0048 39.436 40.0578 39.4562 40.1108C39.52 40.2812 39.5884 40.4493 39.6635 40.614C39.7128 40.7223 39.7632 40.8283 39.8159 40.9344C39.845 40.9931 39.8753 41.0517 39.9066 41.1104C39.9369 41.1679 39.9683 41.2255 40.0008 41.283C40.0322 41.3394 40.0635 41.3947 40.096 41.45C40.1084 41.4725 40.1218 41.494 40.1353 41.5165C40.142 41.5278 40.1498 41.5391 40.1565 41.5515C40.17 41.5752 40.1846 41.5989 40.2002 41.6226C40.235 41.679 40.2697 41.7343 40.3056 41.7884C40.3381 41.8381 40.3706 41.8877 40.4042 41.9362C40.4042 41.9385 40.4053 41.9396 40.4064 41.9407C40.412 41.9486 40.4165 41.9565 40.4232 41.9644C40.4232 41.9667 40.4244 41.9678 40.4266 41.969C40.4591 42.0175 40.4927 42.0648 40.5275 42.1122C40.5656 42.1653 40.6037 42.2183 40.6429 42.2702C40.6955 42.3401 40.7493 42.409 40.8042 42.4778C40.8479 42.5342 40.895 42.5906 40.9421 42.6459C40.9835 42.6944 41.025 42.7429 41.0676 42.7914C41.1292 42.8625 41.1942 42.9336 41.2592 43.0024C41.2749 43.0193 41.2917 43.0374 41.3085 43.0543C41.341 43.0893 41.3746 43.1242 41.4094 43.1581C41.4542 43.2043 41.5013 43.2506 41.5483 43.2957C41.5954 43.3408 41.6424 43.386 41.6906 43.43C41.703 43.4424 41.7153 43.4537 41.7276 43.4638C41.7534 43.4886 41.7803 43.5123 41.8072 43.536C41.8173 43.545 41.8273 43.5541 41.8374 43.562C41.8621 43.5834 41.8856 43.6048 41.9103 43.6263C41.9349 43.6477 41.9585 43.6691 41.9831 43.6883C42.0223 43.721 42.0616 43.7538 42.1008 43.7854C42.168 43.8406 42.2352 43.8948 42.3036 43.9456C42.3495 43.9817 42.3966 44.0166 42.4448 44.0516C42.4975 44.0911 42.5501 44.1295 42.6039 44.1656C42.6566 44.2028 42.7104 44.24 42.7653 44.2761C42.7888 44.293 42.8123 44.3088 42.837 44.3235C42.8617 44.3393 42.8863 44.3551 42.9098 44.3709C42.9244 44.381 42.939 44.3901 42.9535 44.398C43.0006 44.4284 43.0488 44.4578 43.0959 44.486C43.1799 44.5379 43.2651 44.5875 43.3514 44.6338C43.4298 44.6778 43.5094 44.7206 43.5889 44.7624C43.664 44.8007 43.7391 44.838 43.8142 44.8741C44.0428 44.9835 44.2758 45.0828 44.5145 45.1719C44.5482 45.1843 44.5807 45.1967 44.6143 45.208C44.7062 45.2419 44.798 45.2734 44.8911 45.3028C44.9538 45.3231 45.0177 45.3423 45.0816 45.3614C45.1454 45.3806 45.2093 45.3987 45.2743 45.4156C45.3214 45.4291 45.3695 45.4415 45.4177 45.4528C45.6788 45.5194 45.9444 45.5724 46.2134 45.613C46.2559 45.6198 46.2985 45.6266 46.3411 45.6311C46.3411 45.6311 46.3419 45.6311 46.3433 45.6311H46.3445C46.3736 45.6345 46.4016 45.639 46.4296 45.6424C46.5451 45.6582 46.6616 45.6706 46.7793 45.6796C46.8174 45.683 46.8566 45.6852 46.8947 45.6886C46.9563 45.6931 47.0191 45.6965 47.0818 45.6999C47.2197 45.7067 47.3586 45.7101 47.4987 45.7101C47.576 45.7101 47.6533 45.7089 47.7306 45.7067C47.8225 45.7044 47.9144 45.701 48.0074 45.6954C48.0836 45.6909 48.1587 45.6852 48.2338 45.6785C48.3156 45.6717 48.3963 45.6638 48.477 45.6548C48.5431 45.6469 48.6103 45.639 48.6764 45.63C48.7593 45.6187 48.8412 45.6063 48.9241 45.5916C48.9644 45.5848 49.0059 45.5781 49.0462 45.5702C49.1527 45.551 49.2591 45.5295 49.3645 45.5059C50.494 45.2554 51.562 44.7759 52.5167 44.0832C52.7341 43.9264 52.9425 43.7594 53.142 43.5845C55.0044 41.9498 56.0959 39.5636 56.0959 37.0557C56.0959 33.204 53.5533 29.8329 49.9461 28.7589ZM27.9555 42.3255C25.0688 42.3255 22.7212 39.9619 22.7212 37.0557C22.7212 34.1494 25.0688 31.7858 27.9555 31.7858C30.8421 31.7858 33.1909 34.1494 33.1909 37.0557C33.1909 39.9619 30.8421 42.3255 27.9555 42.3255ZM47.4987 42.3255C44.612 42.3255 42.2644 39.9619 42.2644 37.0557C42.2644 34.1494 44.612 31.7858 47.4987 31.7858C47.5592 31.7858 47.6186 31.7858 47.6791 31.7892C47.7206 31.7903 47.762 31.7926 47.8035 31.796C47.8035 31.796 47.8042 31.796 47.8057 31.796C47.8057 31.796 47.8068 31.7949 47.808 31.796C47.8113 31.7949 47.8158 31.7949 47.8192 31.796C47.8416 31.7971 47.864 31.7982 47.8853 31.8005C47.9368 31.8039 47.9873 31.8084 48.0388 31.814C48.0982 31.8197 48.1576 31.8265 48.217 31.8355C48.2472 31.8389 48.2786 31.8434 48.3089 31.849C48.347 31.8547 48.3851 31.8614 48.4221 31.8682C48.4333 31.8693 48.4445 31.8716 48.4545 31.8738C48.477 31.8772 48.4983 31.8817 48.5195 31.8862C50.9613 32.3714 52.7341 34.5454 52.7341 37.0557C52.7341 38.7468 51.9183 40.3466 50.5534 41.336C49.6603 41.9836 48.6036 42.3255 47.4987 42.3255Z" fill="#1D1D1B"/>
<path d="M49.9853 16.5461C49.4586 13.5429 46.6022 11.5302 43.6192 12.0593L40.7225 12.5726C39.9392 8.60589 37.7058 5.15699 34.4046 2.82951C31.0091 0.436607 26.891 -0.484003 22.8086 0.241428C14.4961 1.71711 8.88748 9.64045 10.165 17.9993L7.26934 18.5126C5.82377 18.7687 4.56422 19.5765 3.72265 20.787C2.87996 21.9965 2.55611 23.4643 2.81161 24.9219C3.28226 27.6025 5.60637 29.4933 8.22072 29.4933C8.32494 29.4933 8.43027 29.49 8.53561 29.4843C8.74852 29.4719 8.96256 29.4471 9.17659 29.4087L12.3512 28.8458C12.3703 28.8424 12.3882 28.839 12.4061 28.8356L12.9967 28.7307L40.7337 23.8072L41.3803 23.6922L45.2127 23.0107L45.5265 22.9554C46.9709 22.6993 48.2305 21.8927 49.0732 20.6821H49.0743C49.9158 19.4704 50.2397 18.0026 49.9853 16.5461ZM23.3925 3.57413C24.1063 3.44777 24.8201 3.38572 25.5294 3.38572C28.0004 3.38572 30.4096 4.14499 32.4771 5.60263C35.0422 7.41113 36.7847 10.0838 37.4111 13.1604L13.4763 17.4103C12.5204 10.8905 16.9053 4.72714 23.3925 3.57413ZM46.321 18.7394C45.9926 19.2098 45.5041 19.5235 44.9426 19.6227L40.7964 20.3595L11.7696 25.5119C11.7506 25.5153 11.7327 25.5187 11.7147 25.5221L8.59388 26.076C7.4363 26.2814 6.32692 25.4995 6.12185 24.3341C6.02323 23.7689 6.14874 23.1991 6.47595 22.7287C6.80317 22.2582 7.29175 21.9446 7.85205 21.8453L12.4633 21.0273L39.5918 16.2099L39.6041 16.2077L44.2019 15.392C44.3263 15.3706 44.4507 15.3593 44.5728 15.3593C45.5892 15.3593 46.4924 16.0937 46.6751 17.1339C46.7737 17.698 46.6482 18.2689 46.321 18.7394Z" fill="#DA0037"/>
</g>
<defs>
<clipPath id="clip0_37_71">
<rect width="56.0959" height="65" fill="white"/>
</clipPath>
</defs>
</svg>
