<svg width="403" height="647" viewBox="0 0 403 647" fill="none" xmlns="http://www.w3.org/2000/svg">
<path d="M233.104 133.332H233.108C233.108 133.332 233.111 133.322 233.111 133.316C233.108 133.322 233.104 133.326 233.104 133.332ZM249.523 115.084C250.015 114.833 250.514 114.592 251.022 114.361C250.514 114.588 250.015 114.829 249.523 115.084ZM230.829 145.617C230.829 145.988 230.836 146.356 230.85 146.724C231.05 146.824 231.201 146.921 231.291 146.995C231.127 146.811 230.829 146.279 230.829 145.617ZM233.104 133.332H233.108C233.108 133.332 233.111 133.322 233.111 133.316C233.108 133.322 233.104 133.326 233.104 133.332ZM249.523 115.084C250.015 114.833 250.514 114.592 251.022 114.361C250.514 114.588 250.015 114.829 249.523 115.084ZM182.134 238.433C182.221 238.447 182.308 238.464 182.395 238.484C185.333 239.119 188.869 239.327 192.522 239.276C189.019 239.216 185.547 238.932 182.134 238.433ZM192.405 252.658C192.937 252.668 193.472 252.671 194.004 252.671C198.975 252.671 203.903 252.283 208.75 251.517V251.303C204.237 251.955 198.349 252.601 192.405 252.658ZM260.647 91.0338C257.211 87.6148 253.511 84.4602 249.587 81.6032L247.345 79.9707L122.888 99.7183C122.775 99.735 122.724 99.7351 122.718 99.7384L119.446 99.8388L117.519 102.485C114.843 106.161 112.441 110.025 110.33 114.04C106.205 121.868 103.184 130.265 101.398 138.926H115.107C117.378 129.582 121.323 120.647 126.725 112.658L243.896 94.068C250.286 99.0559 255.916 104.997 260.56 111.628C260.409 111.648 260.255 111.668 260.105 111.695C261.741 111.45 263.417 111.327 265.119 111.327C268.334 111.327 271.526 111.772 274.6 112.655C275.57 112.932 276.527 113.257 277.467 113.625C273.024 105.315 267.334 97.681 260.647 91.0338ZM249.523 115.084C250.015 114.833 250.514 114.592 251.022 114.361C250.514 114.588 250.015 114.829 249.523 115.084ZM233.104 133.332H233.108C233.108 133.332 233.111 133.322 233.111 133.316C233.108 133.322 233.104 133.326 233.104 133.332ZM230.829 145.617C230.829 145.988 230.836 146.356 230.85 146.724C231.05 146.824 231.201 146.921 231.291 146.995C231.127 146.811 230.829 146.279 230.829 145.617Z" fill="black"/>
<path d="M292.374 124.808C288.544 119.794 283.325 115.893 277.467 113.625C276.527 113.257 275.57 112.932 274.6 112.655C271.526 111.772 268.334 111.327 265.119 111.327C263.417 111.327 261.741 111.45 260.105 111.695C259.469 111.785 258.84 111.895 258.218 112.026C257.94 112.083 257.663 112.143 257.385 112.207C257.06 112.28 256.736 112.36 256.415 112.447C256.191 112.504 255.966 112.568 255.742 112.631C255.471 112.708 255.204 112.789 254.933 112.872C254.665 112.956 254.397 113.043 254.133 113.133C253.906 113.21 253.682 113.287 253.454 113.371C253.377 113.397 253.297 113.428 253.22 113.458C253.019 113.531 252.818 113.608 252.618 113.685C252.591 113.695 252.564 113.705 252.537 113.715C252.287 113.819 252.036 113.919 251.785 114.026C251.531 114.133 251.276 114.247 251.022 114.361C250.514 114.592 250.015 114.833 249.523 115.084C249.028 115.338 248.543 115.602 248.065 115.876C247.841 116.007 247.616 116.137 247.396 116.271C247.356 116.295 247.319 116.318 247.282 116.341C247.071 116.472 246.86 116.602 246.653 116.736C246.426 116.883 246.198 117.031 245.974 117.184C245.967 117.188 245.957 117.191 245.95 117.198C245.78 117.315 245.609 117.432 245.442 117.549C245.104 117.787 244.773 118.031 244.445 118.278H244.442C244.114 118.529 243.793 118.783 243.475 119.041C242.997 119.432 242.532 119.834 242.073 120.249C241.668 120.617 241.274 120.995 240.886 121.383C240.692 121.577 240.501 121.774 240.31 121.972C240.12 122.169 239.936 122.37 239.748 122.574C239.564 122.778 239.384 122.982 239.203 123.189C239.022 123.397 238.845 123.608 238.671 123.818C238.504 124.019 238.343 124.223 238.179 124.427C238.166 124.444 238.149 124.461 238.136 124.481C237.979 124.685 237.821 124.889 237.664 125.096C237.657 125.103 237.651 125.113 237.644 125.126C237.483 125.34 237.323 125.561 237.166 125.782C237.022 125.983 236.881 126.183 236.741 126.387C236.57 126.638 236.403 126.893 236.239 127.15C236.098 127.371 235.958 127.599 235.817 127.823C235.643 128.107 235.476 128.391 235.312 128.682C235.199 128.883 235.085 129.084 234.974 129.288C234.844 129.525 234.717 129.77 234.59 130.014C234.586 130.017 234.583 130.024 234.583 130.031C234.459 130.275 234.335 130.519 234.218 130.763C234.098 131.007 233.984 131.252 233.874 131.499C233.864 131.516 233.854 131.536 233.847 131.556C233.753 131.76 233.663 131.968 233.576 132.175C233.546 132.239 233.519 132.302 233.496 132.366C233.425 132.53 233.359 132.69 233.295 132.854C233.248 132.964 233.205 133.075 233.161 133.185C233.148 133.222 233.134 133.259 233.118 133.296C233.118 133.302 233.114 133.309 233.111 133.316C233.111 133.322 233.108 133.326 233.108 133.332H233.104C230.953 132.724 228.561 132.396 226.002 132.396C224.289 132.396 222.081 132.556 219.783 133.145C214.785 120.386 202.354 111.327 187.842 111.327C171.222 111.327 157.329 123.209 154.211 138.926H93.3388L77.8866 154.442L87.3707 163.886L98.8988 152.307H154.211C157.329 168.02 171.222 179.906 187.842 179.906C206.472 179.906 221.68 164.966 222.122 146.443C221.921 146.533 221.78 146.617 221.7 146.687C221.881 146.53 222.132 146.048 222.132 145.617C222.132 145.894 222.128 146.169 222.122 146.443C222.851 146.112 224.363 145.717 226.481 145.784C228.578 145.857 230.094 146.343 230.85 146.724C230.836 146.356 230.829 145.988 230.829 145.617C230.829 146.279 231.127 146.811 231.291 146.995C231.201 146.921 231.05 146.824 230.85 146.724C231.435 165.12 246.583 179.906 265.119 179.906C265.417 179.906 265.715 179.903 266.009 179.893C266.043 179.893 266.076 179.893 266.11 179.89C266.367 179.886 266.621 179.876 266.876 179.86C266.929 179.86 266.983 179.856 267.036 179.853C267.237 179.843 267.441 179.83 267.642 179.813C267.705 179.813 267.772 179.806 267.836 179.799C267.923 179.793 268.01 179.786 268.097 179.776C268.328 179.759 268.558 179.736 268.789 179.712C268.813 179.712 268.833 179.709 268.853 179.706C269.147 179.672 269.438 179.639 269.729 179.599C269.99 179.565 270.254 179.525 270.512 179.485C270.579 179.475 270.646 179.465 270.713 179.451C270.954 179.415 271.188 179.371 271.425 179.328C271.492 179.318 271.559 179.304 271.629 179.288C271.9 179.237 272.168 179.181 272.436 179.124C277.032 178.127 281.378 176.186 285.262 173.366C286.078 172.771 286.868 172.145 287.62 171.483C295.05 165.006 299.409 155.542 299.409 145.617C299.409 138.023 296.977 130.827 292.374 124.808ZM187.842 166.525C176.31 166.525 166.933 157.145 166.933 145.617C166.933 134.088 176.31 124.708 187.842 124.708C199.373 124.708 208.75 134.085 208.75 145.617C208.75 157.148 199.37 166.525 187.842 166.525ZM277.397 162.541C273.807 165.147 269.562 166.525 265.119 166.525C253.588 166.525 244.211 157.145 244.211 145.617C244.211 134.088 253.588 124.708 265.119 124.708C267.086 124.708 269.033 124.979 270.907 125.518H270.91C279.809 128.08 286.028 136.34 286.028 145.617C286.028 152.284 282.8 158.613 277.397 162.541Z" fill="black"/>
<path d="M225.831 200.972C217.87 200.972 210.165 197.848 204.06 192.134C201.364 189.608 201.223 185.373 203.752 182.676C206.278 179.98 210.513 179.84 213.209 182.365C216.916 185.834 221.529 187.694 226.213 187.584C231.057 187.477 235.556 185.346 239.226 181.429C241.752 178.732 245.987 178.592 248.684 181.117C251.38 183.643 251.52 187.878 248.991 190.575C242.896 197.085 234.911 200.771 226.511 200.962C226.283 200.969 226.056 200.969 225.831 200.969V200.972Z" fill="black"/>
<path d="M84.4167 376.403L67.2216 393.598C69.1218 396.679 70.5737 400.061 71.4803 403.65C71.8014 404.908 72.0557 406.2 72.2363 407.508L94.8141 384.93L84.4167 376.403ZM60.1562 356.504L40.1744 376.483C41.4256 376.617 42.6701 376.817 43.8945 377.078C47.6446 377.878 51.194 379.269 54.4323 381.15L70.5503 365.032L60.1562 356.504Z" fill="black"/>
<path d="M369.969 163.303H369.755C366.263 163.283 362.844 162.691 359.612 161.604C359.632 161.614 359.656 161.621 359.676 161.627L355.053 170.58L366.183 178.19L374.004 163.049C372.666 163.22 371.318 163.303 369.969 163.303ZM340.47 144.767C339.975 143.743 339.527 142.666 339.132 141.559L332.21 154.96L343.337 162.567L347.556 154.405C347.619 154.465 347.683 154.522 347.746 154.579C344.762 151.832 342.27 148.52 340.47 144.767Z" fill="black"/>
<path d="M308.92 646.249H228.842L217.97 547.066H194.519L181.499 646.249H105.897L122.243 505.075H135.711L120.918 632.867H169.76L182.78 533.684H229.966L240.835 632.867H293.023L270.887 505.075H284.472L308.92 646.249Z" fill="#DA0037"/>
<path d="M287.62 171.483C284.519 193.378 273.807 213.497 257.258 228.401C247.028 237.61 235.038 244.385 222.132 248.403C217.766 249.761 213.293 250.805 208.75 251.517V251.303C204.237 251.955 198.349 252.601 192.405 252.658H192.211C186.122 252.541 180.127 251.858 174.293 250.627C156.553 246.884 140.257 238.092 127.137 224.975C109.276 207.114 99.4407 183.369 99.4407 158.111C99.4407 156.175 99.5009 154.238 99.6146 152.307H113.026C112.892 154.241 112.822 156.178 112.822 158.111C112.822 179.793 121.266 200.179 136.598 215.511C149.022 227.932 164.762 235.837 181.823 238.387C181.843 238.39 181.867 238.393 181.887 238.397H181.89C181.971 238.41 182.051 238.423 182.131 238.433C182.218 238.447 182.305 238.464 182.392 238.484C185.329 239.119 188.865 239.327 192.518 239.276H192.549C193.034 239.287 193.515 239.29 194 239.29C200.651 239.29 207.215 238.48 213.557 236.908C213.584 236.901 213.608 236.895 213.631 236.891C226.43 233.703 238.336 227.427 248.299 218.455C260.071 207.857 268.404 194.184 272.432 179.124C277.029 178.127 281.374 176.186 285.258 173.366C286.075 172.771 286.864 172.145 287.617 171.483H287.62Z" fill="black"/>
<path d="M369.424 180.405L366.182 178.19L355.052 170.58L343.337 162.571L332.21 154.96L330.283 153.642C328.781 152.615 326.928 152.244 325.152 152.612C323.372 152.98 321.82 154.057 320.846 155.592L249.951 267.889H222.132V248.403C217.766 249.761 213.293 250.805 208.75 251.517V272.449L197.871 287.844L187.674 272.553V252.568C189.173 252.644 190.692 252.671 192.211 252.658C186.122 252.541 180.127 251.858 174.293 250.627V267.889H139.428C137.648 267.889 135.942 268.595 134.684 269.856L58.8916 345.98C57.5602 347.318 56.8543 349.155 56.948 351.038C57.045 352.921 57.9282 354.678 59.3901 355.875L60.1562 356.504L70.5502 365.032L84.4167 376.402L94.814 384.93L100.307 389.436C103.141 391.758 107.316 391.373 109.674 388.566L133.078 360.723L111.859 497.357C111.561 499.287 112.12 501.251 113.391 502.736C114.662 504.218 116.519 505.075 118.472 505.075H285.031C286.924 505.075 288.731 504.269 290.002 502.86C291.27 501.452 291.882 499.572 291.685 497.685L275.751 345.491L371.351 189.421C373.214 186.383 372.365 182.415 369.424 180.405ZM191.02 491.693H126.28L149.976 339.112C150.437 336.148 148.865 333.237 146.132 331.996C143.399 330.752 140.174 331.484 138.243 333.783L103.683 374.897L98.611 370.739L74.3405 350.834L73.571 350.202L142.208 281.271H177.404L191.02 301.694V491.693ZM263.152 340.437C262.386 341.691 262.052 343.163 262.206 344.628L277.601 491.693H204.401V301.794L218.903 281.271H253.641C255.936 281.271 258.074 280.093 259.298 278.149L328.457 168.606L330.886 170.265L353.818 185.945L356.618 187.858L263.152 340.437Z" fill="black"/>
<path d="M72.4303 409.167C72.3801 408.612 72.3132 408.06 72.2362 407.508C72.0556 406.2 71.8013 404.908 71.4802 403.65C70.5736 400.061 69.1217 396.679 67.2215 393.598C67.0844 393.38 66.9472 393.163 66.8101 392.949C66.7231 392.811 66.6328 392.678 66.5424 392.544C66.3116 392.196 66.0774 391.855 65.8332 391.517C65.6827 391.309 65.5321 391.102 65.3783 390.898C65.2444 390.714 65.1073 390.533 64.9668 390.356C64.8731 390.232 64.7761 390.112 64.6791 389.991C64.465 389.72 64.2442 389.453 64.02 389.188C63.8862 389.028 63.7491 388.871 63.6119 388.713C63.3577 388.422 63.0967 388.131 62.8291 387.85C62.6685 387.676 62.5046 387.506 62.3407 387.335C62.0463 387.031 61.7485 386.733 61.4441 386.442C61.3471 386.352 61.2501 386.258 61.1531 386.168C61.0126 386.03 60.8687 385.897 60.7215 385.766C60.6011 385.656 60.4807 385.545 60.3569 385.438C60.2197 385.315 60.0826 385.194 59.9421 385.074C59.8015 384.95 59.6577 384.829 59.5105 384.709C59.3365 384.562 59.1626 384.418 58.9853 384.277C58.7478 384.087 58.5069 383.896 58.2627 383.712C58.0519 383.552 57.8412 383.394 57.6271 383.237C57.4598 383.113 57.2892 382.993 57.1186 382.872C57.0015 382.789 56.8811 382.705 56.7606 382.625C56.5131 382.454 56.2622 382.287 56.0113 382.123C55.8139 381.993 55.6165 381.865 55.4124 381.738C55.1047 381.548 54.7969 381.36 54.4824 381.18C54.4657 381.17 54.449 381.16 54.4323 381.15C51.194 379.269 47.6445 377.878 43.8944 377.078C42.67 376.817 41.4255 376.617 40.1744 376.483C39.3815 376.396 38.5887 376.339 37.7925 376.305C37.3174 376.285 36.829 376.279 36.2971 376.279C16.2818 376.279 0 392.561 0 412.576C0 432.591 16.2818 448.873 36.2971 448.873C56.3123 448.873 72.5942 432.588 72.5942 412.576C72.5942 411.455 72.5373 410.304 72.4303 409.167ZM36.2971 435.491C23.6617 435.491 13.3814 425.211 13.3814 412.576C13.3814 399.94 23.6617 389.66 36.2971 389.66C36.645 389.66 36.9528 389.66 37.2405 389.677C38.5385 389.73 39.8365 389.894 41.1044 390.165C41.3687 390.222 41.6329 390.282 41.8939 390.349C42.0243 390.379 42.1515 390.413 42.2819 390.45C42.4392 390.493 42.5964 390.537 42.7536 390.583C42.9711 390.647 43.1852 390.714 43.3993 390.784C43.5398 390.828 43.6769 390.875 43.8174 390.925C44.0148 390.992 44.2122 391.065 44.4062 391.139C44.7408 391.266 45.0686 391.4 45.3965 391.54C45.5336 391.6 45.6674 391.661 45.8046 391.724C46.1057 391.861 46.4034 392.009 46.6978 392.159C46.8015 392.209 46.9052 392.263 47.0056 392.32C47.1394 392.387 47.2665 392.46 47.397 392.53C47.7583 392.731 48.1129 392.942 48.4608 393.163C48.6849 393.303 48.9057 393.447 49.1232 393.594C49.3406 393.745 49.5547 393.895 49.7688 394.049C49.9428 394.176 50.1134 394.303 50.2807 394.437C50.3208 394.467 50.361 394.497 50.3978 394.528C50.555 394.648 50.7089 394.772 50.8594 394.899C50.9598 394.983 51.0601 395.066 51.1605 395.153C51.2742 395.247 51.3846 395.344 51.495 395.444C51.6054 395.541 51.7158 395.638 51.8229 395.742C52.1373 396.03 52.4451 396.327 52.7429 396.639C52.9268 396.826 53.1075 397.017 53.2815 397.214C53.4989 397.451 53.7097 397.696 53.9171 397.947C54.0141 398.06 54.1078 398.177 54.2014 398.294C54.2583 398.365 54.3185 398.438 54.372 398.512C54.4624 398.626 54.5493 398.739 54.633 398.853C54.7634 399.024 54.8872 399.194 55.011 399.368C55.2418 399.686 55.4593 400.014 55.67 400.345C55.8105 400.573 55.951 400.8 56.0849 401.031C56.2187 401.255 56.3491 401.483 56.4729 401.713C56.4696 401.717 56.4729 401.72 56.4763 401.723C56.6034 401.954 56.7238 402.185 56.8376 402.419C56.9848 402.717 57.1253 403.018 57.2591 403.323C57.3093 403.433 57.3594 403.547 57.4063 403.66C57.4665 403.801 57.5234 403.941 57.5802 404.082C57.6404 404.229 57.6973 404.373 57.7509 404.52C57.7642 404.557 57.7776 404.594 57.791 404.627C57.8612 404.815 57.9282 405.002 57.9917 405.193C58.0586 405.383 58.1222 405.577 58.1824 405.771C58.256 406.009 58.3262 406.25 58.3898 406.494C58.4333 406.641 58.4734 406.788 58.5102 406.939C58.7946 408.066 58.9987 409.234 59.1091 410.418C59.176 411.147 59.2128 411.873 59.2128 412.576C59.2128 425.211 48.9325 435.491 36.2971 435.491Z" fill="black"/>
<path d="M401.145 120.633C398.489 112.304 392.751 105.506 384.983 101.495C377.215 97.4803 368.35 96.7309 360.024 99.3838C359.064 99.6915 358.09 100.053 357.137 100.458C355.581 101.12 354.072 101.906 352.661 102.786C342.163 109.303 336.165 121.463 337.382 133.761C337.563 135.597 337.904 137.43 338.393 139.214C338.503 139.618 338.627 140.043 338.777 140.508C338.888 140.863 339.008 141.211 339.132 141.559C339.527 142.666 339.975 143.743 340.47 144.767C342.27 148.52 344.762 151.832 347.746 154.579C347.756 154.589 347.766 154.599 347.776 154.606C347.927 154.746 348.081 154.887 348.238 155.024C348.429 155.194 348.623 155.362 348.82 155.529C349.024 155.699 349.228 155.867 349.436 156.034C349.606 156.168 349.78 156.305 349.951 156.435C350.068 156.529 350.185 156.616 350.305 156.706C350.423 156.797 350.54 156.884 350.66 156.971C350.871 157.125 351.082 157.275 351.296 157.422C351.396 157.493 351.496 157.559 351.597 157.626C351.737 157.727 351.881 157.82 352.025 157.914C352.159 158.001 352.293 158.088 352.426 158.172C352.453 158.192 352.48 158.208 352.507 158.225C352.654 158.319 352.801 158.409 352.952 158.5C354.052 159.172 355.193 159.781 356.367 160.316C356.635 160.44 356.906 160.56 357.18 160.677C357.401 160.774 357.625 160.868 357.853 160.955C358.037 161.029 358.221 161.102 358.405 161.172C358.542 161.226 358.682 161.276 358.819 161.326C359.08 161.423 359.345 161.517 359.612 161.604C362.844 162.691 366.263 163.283 369.755 163.303H369.969C371.318 163.303 372.666 163.22 374.004 163.049C375.994 162.802 377.968 162.367 379.898 161.751C388.225 159.098 395.023 153.361 399.037 145.593C403.048 137.825 403.798 128.96 401.145 120.633ZM387.148 139.451C384.776 144.041 380.758 147.433 375.834 149.002C373.91 149.614 371.92 149.922 369.936 149.922H369.839C369.655 149.922 369.471 149.919 369.287 149.909C369.284 149.909 369.28 149.909 369.277 149.909H369.264C369.173 149.905 369.086 149.902 368.999 149.895C368.805 149.889 368.615 149.875 368.427 149.862C368.213 149.845 368.002 149.825 367.792 149.798C367.373 149.751 366.959 149.691 366.547 149.614C366.514 149.608 366.48 149.604 366.447 149.598C366.226 149.557 366.005 149.511 365.788 149.46C365.594 149.42 365.403 149.373 365.212 149.323C365.008 149.27 364.804 149.216 364.603 149.156C364.527 149.136 364.453 149.112 364.379 149.089C364.363 149.086 364.349 149.079 364.333 149.076C364.235 149.046 364.135 149.015 364.038 148.982C364.025 148.979 364.015 148.975 364.001 148.969C363.928 148.949 363.854 148.922 363.781 148.895C363.653 148.855 363.53 148.811 363.403 148.761C363.329 148.738 363.252 148.711 363.178 148.681C362.981 148.607 362.784 148.527 362.586 148.447C362.379 148.363 362.175 148.273 361.971 148.179C361.77 148.085 361.569 147.992 361.369 147.891C361.185 147.801 361.004 147.707 360.827 147.61C360.716 147.554 360.609 147.493 360.502 147.43C360.255 147.293 360.007 147.149 359.763 146.995C359.686 146.948 359.609 146.901 359.532 146.851C359.478 146.818 359.428 146.784 359.375 146.747C359.248 146.667 359.124 146.583 359 146.496C358.836 146.386 358.676 146.272 358.515 146.155C358.334 146.025 358.157 145.888 357.983 145.747C357.806 145.613 357.635 145.473 357.465 145.326C357.123 145.041 356.792 144.743 356.471 144.426C356.31 144.275 356.153 144.118 355.999 143.957C355.929 143.88 355.855 143.803 355.788 143.726C355.668 143.599 355.551 143.472 355.437 143.342C355.357 143.251 355.277 143.161 355.2 143.071C355.15 143.011 355.099 142.95 355.049 142.89C354.922 142.736 354.795 142.582 354.674 142.425C354.574 142.295 354.474 142.164 354.377 142.03C354.223 141.823 354.072 141.612 353.928 141.398C353.872 141.318 353.818 141.234 353.765 141.151C353.44 140.659 353.139 140.147 352.861 139.622C352.838 139.582 352.818 139.541 352.798 139.501C352.781 139.471 352.764 139.441 352.751 139.411C352.671 139.26 352.597 139.11 352.523 138.956C352.139 138.163 351.804 137.317 351.527 136.447C351.446 136.193 351.369 135.935 351.299 135.681C351.008 134.62 350.807 133.533 350.7 132.446C349.981 125.183 353.524 118.001 359.733 114.147C360.566 113.625 361.452 113.163 362.375 112.772C362.948 112.528 363.523 112.314 364.085 112.136C366.022 111.517 368.006 111.213 369.979 111.213C373.027 111.213 376.055 111.942 378.841 113.381C383.431 115.756 386.827 119.77 388.396 124.695C389.961 129.619 389.52 134.858 387.148 139.451Z" fill="black"/>
<path d="M218.117 329.444C223.106 329.444 227.15 325.4 227.15 320.411C227.15 315.423 223.106 311.379 218.117 311.379C213.129 311.379 209.085 315.423 209.085 320.411C209.085 325.4 213.129 329.444 218.117 329.444Z" fill="#DA0037"/>
<path d="M218.117 364.57C223.106 364.57 227.15 360.526 227.15 355.538C227.15 350.549 223.106 346.505 218.117 346.505C213.129 346.505 209.085 350.549 209.085 355.538C209.085 360.526 213.129 364.57 218.117 364.57Z" fill="#DA0037"/>
<path d="M218.117 399.696C223.106 399.696 227.15 395.652 227.15 390.664C227.15 385.675 223.106 381.631 218.117 381.631C213.129 381.631 209.085 385.675 209.085 390.664C209.085 395.652 213.129 399.696 218.117 399.696Z" fill="#DA0037"/>
<path d="M218.117 434.822C223.106 434.822 227.15 430.778 227.15 425.79C227.15 420.801 223.106 416.758 218.117 416.758C213.129 416.758 209.085 420.801 209.085 425.79C209.085 430.778 213.129 434.822 218.117 434.822Z" fill="#DA0037"/>
<path d="M218.117 469.949C223.106 469.949 227.15 465.905 227.15 460.916C227.15 455.928 223.106 451.884 218.117 451.884C213.129 451.884 209.085 455.928 209.085 460.916C209.085 465.905 213.129 469.949 218.117 469.949Z" fill="#DA0037"/>
<path d="M118.569 82.0214L116.977 71.9786C114.371 55.5663 118.315 39.1172 128.08 25.6722C137.842 12.2206 152.261 3.37881 168.673 0.776122C171.911 0.260938 175.213 0 178.488 0C193.137 0 207.395 5.23882 218.632 14.7463C229.993 24.3609 237.534 37.759 239.869 52.4752L241.461 62.518L118.563 82.018L118.569 82.0214ZM178.491 13.3814C175.915 13.3814 173.32 13.5855 170.774 13.9903C157.887 16.0343 146.57 22.9759 138.906 33.5305C131.874 43.2153 128.689 54.8805 129.79 66.6896L226.049 51.4181C223.711 41.1144 218.087 31.811 209.991 24.9597C201.166 17.4929 189.979 13.3781 178.491 13.3781V13.3814Z" fill="#DA0037"/>
<path d="M105.506 114.522C100.862 114.522 96.3596 113.053 92.5459 110.253C87.8156 106.78 84.7244 101.672 83.8346 95.8712C82.9481 90.0703 84.3698 84.2728 87.8457 79.5425C91.3181 74.8122 96.4265 71.7211 102.227 70.8312L254.481 47.5275C266.454 45.6942 277.688 53.9472 279.518 65.9202C281.351 77.8932 273.098 89.1269 261.125 90.9602L108.871 114.264C107.744 114.435 106.62 114.522 105.502 114.522H105.506ZM257.826 60.658C257.388 60.658 256.95 60.6914 256.508 60.7583L104.255 84.0621C101.986 84.41 99.9926 85.6176 98.6344 87.4676C97.2762 89.3176 96.7209 91.5824 97.0654 93.8506C97.4134 96.1187 98.621 98.1159 100.471 99.4708C102.321 100.829 104.586 101.384 106.854 101.04L259.108 77.736C261.376 77.3881 263.37 76.1804 264.728 74.3304C266.086 72.4804 266.641 70.2156 266.297 67.9475C265.949 65.6793 264.741 63.6855 262.891 62.3273C261.403 61.2334 259.64 60.658 257.826 60.658Z" fill="#DA0037"/>
</svg>
